<?xml version="1.0" encoding="utf-8" standalone="no"?>
<!DOCTYPE svg PUBLIC "-//W3C//DTD SVG 1.1//EN"
  "http://www.w3.org/Graphics/SVG/1.1/DTD/svg11.dtd">
<!-- Created with matplotlib (http://matplotlib.org/) -->
<svg height="442pt" version="1.1" viewBox="0 0 586 442" width="586pt" xmlns="http://www.w3.org/2000/svg" xmlns:xlink="http://www.w3.org/1999/xlink">
 <defs>
  <style type="text/css">
*{stroke-linecap:butt;stroke-linejoin:round;}
  </style>
 </defs>
 <g id="figure_1">
  <g id="patch_1">
   <path d="
M0 442.8
L586.8 442.8
L586.8 0
L0 0
z
" style="fill:#ffffff;"/>
  </g>
  <g id="axes_1">
   <g id="patch_2">
    <path d="
M73.35 398.52
L528.12 398.52
L528.12 44.28
L73.35 44.28
z
" style="fill:#ffffff;"/>
   </g>
   <g id="line2d_1">
    <path clip-path="url(#p9061672a36)" d="
M82.4454 83.2073
L91.5408 147.696
L100.636 94.1991
L109.732 95.1346
L118.827 69.4091
L127.922 57.4819
L137.018 68.4737
L146.113 121.036
L155.209 96.2455
L164.304 97.181
L173.399 44.6191
L182.495 98.1164
L191.59 57.4819
L200.686 70.3446
L209.781 70.3446
L218.876 83.2073
L227.972 106.126
L237.067 121.971
L246.163 82.2719
L255.258 121.971
L264.353 96.2455
L273.449 121.971
L282.544 118.054
L291.64 134.834
L300.735 158.688
L309.83 146.761
L318.926 158.688
L328.021 171.551
L337.117 159.624
L346.212 159.624
L355.307 159.624
L364.403 184.414
L373.498 172.486
L382.594 172.486
L391.689 172.486
L400.784 184.414
L409.88 172.486
L418.975 182.367
L428.071 197.277
L437.166 210.139
L446.261 185.349
L455.357 223.002
L464.452 234.929
L473.548 232.883
L482.643 247.792
L491.738 232.883
L500.834 247.792
L509.929 260.655
L519.025 247.792
L528.12 247.792" style="fill:none;stroke:#0000ff;stroke-linecap:square;"/>
    <defs>
     <path d="
M0 1.5
C0.397805 1.5 0.77937 1.34195 1.06066 1.06066
C1.34195 0.77937 1.5 0.397805 1.5 0
C1.5 -0.397805 1.34195 -0.77937 1.06066 -1.06066
C0.77937 -1.34195 0.397805 -1.5 0 -1.5
C-0.397805 -1.5 -0.77937 -1.34195 -1.06066 -1.06066
C-1.34195 -0.77937 -1.5 -0.397805 -1.5 0
C-1.5 0.397805 -1.34195 0.77937 -1.06066 1.06066
C-0.77937 1.34195 -0.397805 1.5 0 1.5
z
" id="m76a7ce5b4a" style="stroke:#0000ff;stroke-width:0.5;"/>
    </defs>
    <g clip-path="url(#p9061672a36)">
     <use style="fill:#0000ff;stroke:#0000ff;stroke-width:0.5;" x="82.4454" xlink:href="#m76a7ce5b4a" y="83.2073440285"/>
     <use style="fill:#0000ff;stroke:#0000ff;stroke-width:0.5;" x="91.5408" xlink:href="#m76a7ce5b4a" y="147.696470588"/>
     <use style="fill:#0000ff;stroke:#0000ff;stroke-width:0.5;" x="100.6362" xlink:href="#m76a7ce5b4a" y="94.199144385"/>
     <use style="fill:#0000ff;stroke:#0000ff;stroke-width:0.5;" x="109.7316" xlink:href="#m76a7ce5b4a" y="95.1346167558"/>
     <use style="fill:#0000ff;stroke:#0000ff;stroke-width:0.5;" x="118.827" xlink:href="#m76a7ce5b4a" y="69.4091265597"/>
     <use style="fill:#0000ff;stroke:#0000ff;stroke-width:0.5;" x="127.9224" xlink:href="#m76a7ce5b4a" y="57.4818538324"/>
     <use style="fill:#0000ff;stroke:#0000ff;stroke-width:0.5;" x="137.0178" xlink:href="#m76a7ce5b4a" y="68.4736541889"/>
     <use style="fill:#0000ff;stroke:#0000ff;stroke-width:0.5;" x="146.1132" xlink:href="#m76a7ce5b4a" y="121.035508021"/>
     <use style="fill:#0000ff;stroke:#0000ff;stroke-width:0.5;" x="155.2086" xlink:href="#m76a7ce5b4a" y="96.2454901961"/>
     <use style="fill:#0000ff;stroke:#0000ff;stroke-width:0.5;" x="164.304" xlink:href="#m76a7ce5b4a" y="97.1809625668"/>
     <use style="fill:#0000ff;stroke:#0000ff;stroke-width:0.5;" x="173.3994" xlink:href="#m76a7ce5b4a" y="44.6191087344"/>
     <use style="fill:#0000ff;stroke:#0000ff;stroke-width:0.5;" x="182.4948" xlink:href="#m76a7ce5b4a" y="98.1164349376"/>
     <use style="fill:#0000ff;stroke:#0000ff;stroke-width:0.5;" x="191.5902" xlink:href="#m76a7ce5b4a" y="57.4818538324"/>
     <use style="fill:#0000ff;stroke:#0000ff;stroke-width:0.5;" x="200.6856" xlink:href="#m76a7ce5b4a" y="70.3445989305"/>
     <use style="fill:#0000ff;stroke:#0000ff;stroke-width:0.5;" x="209.781" xlink:href="#m76a7ce5b4a" y="70.3445989305"/>
     <use style="fill:#0000ff;stroke:#0000ff;stroke-width:0.5;" x="218.8764" xlink:href="#m76a7ce5b4a" y="83.2073440285"/>
     <use style="fill:#0000ff;stroke:#0000ff;stroke-width:0.5;" x="227.9718" xlink:href="#m76a7ce5b4a" y="106.126417112"/>
     <use style="fill:#0000ff;stroke:#0000ff;stroke-width:0.5;" x="237.0672" xlink:href="#m76a7ce5b4a" y="121.970980392"/>
     <use style="fill:#0000ff;stroke:#0000ff;stroke-width:0.5;" x="246.1626" xlink:href="#m76a7ce5b4a" y="82.2718716578"/>
     <use style="fill:#0000ff;stroke:#0000ff;stroke-width:0.5;" x="255.258" xlink:href="#m76a7ce5b4a" y="121.970980392"/>
     <use style="fill:#0000ff;stroke:#0000ff;stroke-width:0.5;" x="264.3534" xlink:href="#m76a7ce5b4a" y="96.2454901961"/>
     <use style="fill:#0000ff;stroke:#0000ff;stroke-width:0.5;" x="273.4488" xlink:href="#m76a7ce5b4a" y="121.970980392"/>
     <use style="fill:#0000ff;stroke:#0000ff;stroke-width:0.5;" x="282.5442" xlink:href="#m76a7ce5b4a" y="118.05368984"/>
     <use style="fill:#0000ff;stroke:#0000ff;stroke-width:0.5;" x="291.6396" xlink:href="#m76a7ce5b4a" y="134.83372549"/>
     <use style="fill:#0000ff;stroke:#0000ff;stroke-width:0.5;" x="300.735" xlink:href="#m76a7ce5b4a" y="158.688270945"/>
     <use style="fill:#0000ff;stroke:#0000ff;stroke-width:0.5;" x="309.8304" xlink:href="#m76a7ce5b4a" y="146.760998217"/>
     <use style="fill:#0000ff;stroke:#0000ff;stroke-width:0.5;" x="318.9258" xlink:href="#m76a7ce5b4a" y="158.688270945"/>
     <use style="fill:#0000ff;stroke:#0000ff;stroke-width:0.5;" x="328.0212" xlink:href="#m76a7ce5b4a" y="171.551016043"/>
     <use style="fill:#0000ff;stroke:#0000ff;stroke-width:0.5;" x="337.1166" xlink:href="#m76a7ce5b4a" y="159.623743316"/>
     <use style="fill:#0000ff;stroke:#0000ff;stroke-width:0.5;" x="346.212" xlink:href="#m76a7ce5b4a" y="159.623743316"/>
     <use style="fill:#0000ff;stroke:#0000ff;stroke-width:0.5;" x="355.3074" xlink:href="#m76a7ce5b4a" y="159.623743316"/>
     <use style="fill:#0000ff;stroke:#0000ff;stroke-width:0.5;" x="364.4028" xlink:href="#m76a7ce5b4a" y="184.413761141"/>
     <use style="fill:#0000ff;stroke:#0000ff;stroke-width:0.5;" x="373.4982" xlink:href="#m76a7ce5b4a" y="172.486488414"/>
     <use style="fill:#0000ff;stroke:#0000ff;stroke-width:0.5;" x="382.5936" xlink:href="#m76a7ce5b4a" y="172.486488414"/>
     <use style="fill:#0000ff;stroke:#0000ff;stroke-width:0.5;" x="391.689" xlink:href="#m76a7ce5b4a" y="172.486488414"/>
     <use style="fill:#0000ff;stroke:#0000ff;stroke-width:0.5;" x="400.7844" xlink:href="#m76a7ce5b4a" y="184.413761141"/>
     <use style="fill:#0000ff;stroke:#0000ff;stroke-width:0.5;" x="409.8798" xlink:href="#m76a7ce5b4a" y="172.486488414"/>
     <use style="fill:#0000ff;stroke:#0000ff;stroke-width:0.5;" x="418.9752" xlink:href="#m76a7ce5b4a" y="182.36741533"/>
     <use style="fill:#0000ff;stroke:#0000ff;stroke-width:0.5;" x="428.0706" xlink:href="#m76a7ce5b4a" y="197.276506239"/>
     <use style="fill:#0000ff;stroke:#0000ff;stroke-width:0.5;" x="437.166" xlink:href="#m76a7ce5b4a" y="210.139251337"/>
     <use style="fill:#0000ff;stroke:#0000ff;stroke-width:0.5;" x="446.2614" xlink:href="#m76a7ce5b4a" y="185.349233512"/>
     <use style="fill:#0000ff;stroke:#0000ff;stroke-width:0.5;" x="455.3568" xlink:href="#m76a7ce5b4a" y="223.001996435"/>
     <use style="fill:#0000ff;stroke:#0000ff;stroke-width:0.5;" x="464.4522" xlink:href="#m76a7ce5b4a" y="234.929269162"/>
     <use style="fill:#0000ff;stroke:#0000ff;stroke-width:0.5;" x="473.5476" xlink:href="#m76a7ce5b4a" y="232.882923351"/>
     <use style="fill:#0000ff;stroke:#0000ff;stroke-width:0.5;" x="482.643" xlink:href="#m76a7ce5b4a" y="247.79201426"/>
     <use style="fill:#0000ff;stroke:#0000ff;stroke-width:0.5;" x="491.7384" xlink:href="#m76a7ce5b4a" y="232.882923351"/>
     <use style="fill:#0000ff;stroke:#0000ff;stroke-width:0.5;" x="500.8338" xlink:href="#m76a7ce5b4a" y="247.79201426"/>
     <use style="fill:#0000ff;stroke:#0000ff;stroke-width:0.5;" x="509.9292" xlink:href="#m76a7ce5b4a" y="260.654759358"/>
     <use style="fill:#0000ff;stroke:#0000ff;stroke-width:0.5;" x="519.0246" xlink:href="#m76a7ce5b4a" y="247.79201426"/>
     <use style="fill:#0000ff;stroke:#0000ff;stroke-width:0.5;" x="528.12" xlink:href="#m76a7ce5b4a" y="247.79201426"/>
    </g>
   </g>
   <g id="line2d_2">
    <path clip-path="url(#p9061672a36)" d="
M82.4454 110.044
L91.5408 131.852
L100.636 95.1346
L109.732 121.971
L118.827 84.3182
L127.922 97.181
L137.018 73.3264
L146.113 98.1164
L155.209 73.3264
L164.304 99.0519
L173.399 83.2073
L182.495 96.0701
L191.59 119.925
L200.686 119.925
L209.781 107.062
L218.876 144.715
L227.972 119.925
L237.067 144.715
L246.163 144.715
L255.258 184.414
L264.353 159.624
L273.449 170.44
L282.544 169.505
L291.64 170.44
L300.735 182.367
L309.83 194.295
L318.926 182.367
L328.021 194.295
L337.117 206.222
L346.212 206.222
L355.307 206.222
L364.403 244.986
L373.498 206.222
L382.594 268.84
L391.689 253.931
L400.784 254.867
L409.88 257.848
L418.975 309.475
L428.071 257.848
L437.166 309.475
L446.261 297.547
L455.357 294.566
L464.452 309.475
L473.548 322.337
L482.643 322.337
L491.738 322.337
L500.834 337.247
L509.929 348.063
L519.025 348.063
L528.12 360.926" style="fill:none;stroke:#ff0000;stroke-linecap:square;"/>
    <defs>
     <path d="
M0 1.5
C0.397805 1.5 0.77937 1.34195 1.06066 1.06066
C1.34195 0.77937 1.5 0.397805 1.5 0
C1.5 -0.397805 1.34195 -0.77937 1.06066 -1.06066
C0.77937 -1.34195 0.397805 -1.5 0 -1.5
C-0.397805 -1.5 -0.77937 -1.34195 -1.06066 -1.06066
C-1.34195 -0.77937 -1.5 -0.397805 -1.5 0
C-1.5 0.397805 -1.34195 0.77937 -1.06066 1.06066
C-0.77937 1.34195 -0.397805 1.5 0 1.5
z
" id="ma07bdd5909" style="stroke:#ff0000;stroke-width:0.5;"/>
    </defs>
    <g clip-path="url(#p9061672a36)">
     <use style="fill:#ff0000;stroke:#ff0000;stroke-width:0.5;" x="82.4454" xlink:href="#ma07bdd5909" y="110.043707665"/>
     <use style="fill:#ff0000;stroke:#ff0000;stroke-width:0.5;" x="91.5408" xlink:href="#ma07bdd5909" y="131.851907308"/>
     <use style="fill:#ff0000;stroke:#ff0000;stroke-width:0.5;" x="100.6362" xlink:href="#ma07bdd5909" y="95.1346167558"/>
     <use style="fill:#ff0000;stroke:#ff0000;stroke-width:0.5;" x="109.7316" xlink:href="#ma07bdd5909" y="121.970980392"/>
     <use style="fill:#ff0000;stroke:#ff0000;stroke-width:0.5;" x="118.827" xlink:href="#ma07bdd5909" y="84.3182174688"/>
     <use style="fill:#ff0000;stroke:#ff0000;stroke-width:0.5;" x="127.9224" xlink:href="#ma07bdd5909" y="97.1809625668"/>
     <use style="fill:#ff0000;stroke:#ff0000;stroke-width:0.5;" x="137.0178" xlink:href="#ma07bdd5909" y="73.3264171123"/>
     <use style="fill:#ff0000;stroke:#ff0000;stroke-width:0.5;" x="146.1132" xlink:href="#ma07bdd5909" y="98.1164349376"/>
     <use style="fill:#ff0000;stroke:#ff0000;stroke-width:0.5;" x="155.2086" xlink:href="#ma07bdd5909" y="73.3264171123"/>
     <use style="fill:#ff0000;stroke:#ff0000;stroke-width:0.5;" x="164.304" xlink:href="#ma07bdd5909" y="99.0519073084"/>
     <use style="fill:#ff0000;stroke:#ff0000;stroke-width:0.5;" x="173.3994" xlink:href="#ma07bdd5909" y="83.2073440285"/>
     <use style="fill:#ff0000;stroke:#ff0000;stroke-width:0.5;" x="182.4948" xlink:href="#ma07bdd5909" y="96.0700891266"/>
     <use style="fill:#ff0000;stroke:#ff0000;stroke-width:0.5;" x="191.5902" xlink:href="#ma07bdd5909" y="119.924634581"/>
     <use style="fill:#ff0000;stroke:#ff0000;stroke-width:0.5;" x="200.6856" xlink:href="#ma07bdd5909" y="119.924634581"/>
     <use style="fill:#ff0000;stroke:#ff0000;stroke-width:0.5;" x="209.781" xlink:href="#ma07bdd5909" y="107.061889483"/>
     <use style="fill:#ff0000;stroke:#ff0000;stroke-width:0.5;" x="218.8764" xlink:href="#ma07bdd5909" y="144.714652406"/>
     <use style="fill:#ff0000;stroke:#ff0000;stroke-width:0.5;" x="227.9718" xlink:href="#ma07bdd5909" y="119.924634581"/>
     <use style="fill:#ff0000;stroke:#ff0000;stroke-width:0.5;" x="237.0672" xlink:href="#ma07bdd5909" y="144.714652406"/>
     <use style="fill:#ff0000;stroke:#ff0000;stroke-width:0.5;" x="246.1626" xlink:href="#ma07bdd5909" y="144.714652406"/>
     <use style="fill:#ff0000;stroke:#ff0000;stroke-width:0.5;" x="255.258" xlink:href="#ma07bdd5909" y="184.413761141"/>
     <use style="fill:#ff0000;stroke:#ff0000;stroke-width:0.5;" x="264.3534" xlink:href="#ma07bdd5909" y="159.623743316"/>
     <use style="fill:#ff0000;stroke:#ff0000;stroke-width:0.5;" x="273.4488" xlink:href="#ma07bdd5909" y="170.440142602"/>
     <use style="fill:#ff0000;stroke:#ff0000;stroke-width:0.5;" x="282.5442" xlink:href="#ma07bdd5909" y="169.504670232"/>
     <use style="fill:#ff0000;stroke:#ff0000;stroke-width:0.5;" x="291.6396" xlink:href="#ma07bdd5909" y="170.440142602"/>
     <use style="fill:#ff0000;stroke:#ff0000;stroke-width:0.5;" x="300.735" xlink:href="#ma07bdd5909" y="182.36741533"/>
     <use style="fill:#ff0000;stroke:#ff0000;stroke-width:0.5;" x="309.8304" xlink:href="#ma07bdd5909" y="194.294688057"/>
     <use style="fill:#ff0000;stroke:#ff0000;stroke-width:0.5;" x="318.9258" xlink:href="#ma07bdd5909" y="182.36741533"/>
     <use style="fill:#ff0000;stroke:#ff0000;stroke-width:0.5;" x="328.0212" xlink:href="#ma07bdd5909" y="194.294688057"/>
     <use style="fill:#ff0000;stroke:#ff0000;stroke-width:0.5;" x="337.1166" xlink:href="#ma07bdd5909" y="206.221960784"/>
     <use style="fill:#ff0000;stroke:#ff0000;stroke-width:0.5;" x="346.212" xlink:href="#ma07bdd5909" y="206.221960784"/>
     <use style="fill:#ff0000;stroke:#ff0000;stroke-width:0.5;" x="355.3074" xlink:href="#ma07bdd5909" y="206.221960784"/>
     <use style="fill:#ff0000;stroke:#ff0000;stroke-width:0.5;" x="364.4028" xlink:href="#ma07bdd5909" y="244.985597148"/>
     <use style="fill:#ff0000;stroke:#ff0000;stroke-width:0.5;" x="373.4982" xlink:href="#ma07bdd5909" y="206.221960784"/>
     <use style="fill:#ff0000;stroke:#ff0000;stroke-width:0.5;" x="382.5936" xlink:href="#ma07bdd5909" y="268.840142602"/>
     <use style="fill:#ff0000;stroke:#ff0000;stroke-width:0.5;" x="391.689" xlink:href="#ma07bdd5909" y="253.931051693"/>
     <use style="fill:#ff0000;stroke:#ff0000;stroke-width:0.5;" x="400.7844" xlink:href="#ma07bdd5909" y="254.866524064"/>
     <use style="fill:#ff0000;stroke:#ff0000;stroke-width:0.5;" x="409.8798" xlink:href="#ma07bdd5909" y="257.848342246"/>
     <use style="fill:#ff0000;stroke:#ff0000;stroke-width:0.5;" x="418.9752" xlink:href="#ma07bdd5909" y="309.474723708"/>
     <use style="fill:#ff0000;stroke:#ff0000;stroke-width:0.5;" x="428.0706" xlink:href="#ma07bdd5909" y="257.848342246"/>
     <use style="fill:#ff0000;stroke:#ff0000;stroke-width:0.5;" x="437.166" xlink:href="#ma07bdd5909" y="309.474723708"/>
     <use style="fill:#ff0000;stroke:#ff0000;stroke-width:0.5;" x="446.2614" xlink:href="#ma07bdd5909" y="297.54745098"/>
     <use style="fill:#ff0000;stroke:#ff0000;stroke-width:0.5;" x="455.3568" xlink:href="#ma07bdd5909" y="294.565632799"/>
     <use style="fill:#ff0000;stroke:#ff0000;stroke-width:0.5;" x="464.4522" xlink:href="#ma07bdd5909" y="309.474723708"/>
     <use style="fill:#ff0000;stroke:#ff0000;stroke-width:0.5;" x="473.5476" xlink:href="#ma07bdd5909" y="322.337468806"/>
     <use style="fill:#ff0000;stroke:#ff0000;stroke-width:0.5;" x="482.643" xlink:href="#ma07bdd5909" y="322.337468806"/>
     <use style="fill:#ff0000;stroke:#ff0000;stroke-width:0.5;" x="491.7384" xlink:href="#ma07bdd5909" y="322.337468806"/>
     <use style="fill:#ff0000;stroke:#ff0000;stroke-width:0.5;" x="500.8338" xlink:href="#ma07bdd5909" y="337.246559715"/>
     <use style="fill:#ff0000;stroke:#ff0000;stroke-width:0.5;" x="509.9292" xlink:href="#ma07bdd5909" y="348.062959002"/>
     <use style="fill:#ff0000;stroke:#ff0000;stroke-width:0.5;" x="519.0246" xlink:href="#ma07bdd5909" y="348.062959002"/>
     <use style="fill:#ff0000;stroke:#ff0000;stroke-width:0.5;" x="528.12" xlink:href="#ma07bdd5909" y="360.9257041"/>
    </g>
   </g>
   <g id="matplotlib.axis_1">
    <g id="xtick_1">
     <g id="line2d_3">
      <defs>
       <path d="
M0 0
L0 -4" id="m93b0483c22" style="stroke:#000000;stroke-width:0.5;"/>
      </defs>
      <g>
       <use style="stroke:#000000;stroke-width:0.5;" x="73.35" xlink:href="#m93b0483c22" y="398.52"/>
      </g>
     </g>
     <g id="line2d_4">
      <defs>
       <path d="
M0 0
L0 4" id="m741efc42ff" style="stroke:#000000;stroke-width:0.5;"/>
      </defs>
      <g>
       <use style="stroke:#000000;stroke-width:0.5;" x="73.35" xlink:href="#m741efc42ff" y="44.28"/>
      </g>
     </g>
     <g id="text_1">
      <!-- 0 -->
      <defs>
       <path d="
M31.7812 66.4062
Q24.1719 66.4062 20.3281 58.9062
Q16.5 51.4219 16.5 36.375
Q16.5 21.3906 20.3281 13.8906
Q24.1719 6.39062 31.7812 6.39062
Q39.4531 6.39062 43.2812 13.8906
Q47.125 21.3906 47.125 36.375
Q47.125 51.4219 43.2812 58.9062
Q39.4531 66.4062 31.7812 66.4062
M31.7812 74.2188
Q44.0469 74.2188 50.5156 64.5156
Q56.9844 54.8281 56.9844 36.375
Q56.9844 17.9688 50.5156 8.26562
Q44.0469 -1.42188 31.7812 -1.42188
Q19.5312 -1.42188 13.0625 8.26562
Q6.59375 17.9688 6.59375 36.375
Q6.59375 54.8281 13.0625 64.5156
Q19.5312 74.2188 31.7812 74.2188" id="BitstreamVeraSans-Roman-30"/>
      </defs>
      <g transform="translate(70.3265625 411.638125)scale(0.12 -0.12)">
       <use xlink:href="#BitstreamVeraSans-Roman-30"/>
      </g>
     </g>
    </g>
    <g id="xtick_2">
     <g id="line2d_5">
      <g>
       <use style="stroke:#000000;stroke-width:0.5;" x="164.304" xlink:href="#m93b0483c22" y="398.52"/>
      </g>
     </g>
     <g id="line2d_6">
      <g>
       <use style="stroke:#000000;stroke-width:0.5;" x="164.304" xlink:href="#m741efc42ff" y="44.28"/>
      </g>
     </g>
     <g id="text_2">
      <!-- 10 -->
      <defs>
       <path d="
M12.4062 8.29688
L28.5156 8.29688
L28.5156 63.9219
L10.9844 60.4062
L10.9844 69.3906
L28.4219 72.9062
L38.2812 72.9062
L38.2812 8.29688
L54.3906 8.29688
L54.3906 0
L12.4062 0
z
" id="BitstreamVeraSans-Roman-31"/>
      </defs>
      <g transform="translate(157.7265 411.638125)scale(0.12 -0.12)">
       <use xlink:href="#BitstreamVeraSans-Roman-31"/>
       <use x="63.623046875" xlink:href="#BitstreamVeraSans-Roman-30"/>
      </g>
     </g>
    </g>
    <g id="xtick_3">
     <g id="line2d_7">
      <g>
       <use style="stroke:#000000;stroke-width:0.5;" x="255.258" xlink:href="#m93b0483c22" y="398.52"/>
      </g>
     </g>
     <g id="line2d_8">
      <g>
       <use style="stroke:#000000;stroke-width:0.5;" x="255.258" xlink:href="#m741efc42ff" y="44.28"/>
      </g>
     </g>
     <g id="text_3">
      <!-- 20 -->
      <defs>
       <path d="
M19.1875 8.29688
L53.6094 8.29688
L53.6094 0
L7.32812 0
L7.32812 8.29688
Q12.9375 14.1094 22.625 23.8906
Q32.3281 33.6875 34.8125 36.5312
Q39.5469 41.8438 41.4219 45.5312
Q43.3125 49.2188 43.3125 52.7812
Q43.3125 58.5938 39.2344 62.25
Q35.1562 65.9219 28.6094 65.9219
Q23.9688 65.9219 18.8125 64.3125
Q13.6719 62.7031 7.8125 59.4219
L7.8125 69.3906
Q13.7656 71.7812 18.9375 73
Q24.125 74.2188 28.4219 74.2188
Q39.75 74.2188 46.4844 68.5469
Q53.2188 62.8906 53.2188 53.4219
Q53.2188 48.9219 51.5312 44.8906
Q49.8594 40.875 45.4062 35.4062
Q44.1875 33.9844 37.6406 27.2188
Q31.1094 20.4531 19.1875 8.29688" id="BitstreamVeraSans-Roman-32"/>
      </defs>
      <g transform="translate(248.461125 411.638125)scale(0.12 -0.12)">
       <use xlink:href="#BitstreamVeraSans-Roman-32"/>
       <use x="63.623046875" xlink:href="#BitstreamVeraSans-Roman-30"/>
      </g>
     </g>
    </g>
    <g id="xtick_4">
     <g id="line2d_9">
      <g>
       <use style="stroke:#000000;stroke-width:0.5;" x="346.212" xlink:href="#m93b0483c22" y="398.52"/>
      </g>
     </g>
     <g id="line2d_10">
      <g>
       <use style="stroke:#000000;stroke-width:0.5;" x="346.212" xlink:href="#m741efc42ff" y="44.28"/>
      </g>
     </g>
     <g id="text_4">
      <!-- 30 -->
      <defs>
       <path d="
M40.5781 39.3125
Q47.6562 37.7969 51.625 33
Q55.6094 28.2188 55.6094 21.1875
Q55.6094 10.4062 48.1875 4.48438
Q40.7656 -1.42188 27.0938 -1.42188
Q22.5156 -1.42188 17.6562 -0.515625
Q12.7969 0.390625 7.625 2.20312
L7.625 11.7188
Q11.7188 9.32812 16.5938 8.10938
Q21.4844 6.89062 26.8125 6.89062
Q36.0781 6.89062 40.9375 10.5469
Q45.7969 14.2031 45.7969 21.1875
Q45.7969 27.6406 41.2812 31.2656
Q36.7656 34.9062 28.7188 34.9062
L20.2188 34.9062
L20.2188 43.0156
L29.1094 43.0156
Q36.375 43.0156 40.2344 45.9219
Q44.0938 48.8281 44.0938 54.2969
Q44.0938 59.9062 40.1094 62.9062
Q36.1406 65.9219 28.7188 65.9219
Q24.6562 65.9219 20.0156 65.0312
Q15.375 64.1562 9.8125 62.3125
L9.8125 71.0938
Q15.4375 72.6562 20.3438 73.4375
Q25.25 74.2188 29.5938 74.2188
Q40.8281 74.2188 47.3594 69.1094
Q53.9062 64.0156 53.9062 55.3281
Q53.9062 49.2656 50.4375 45.0938
Q46.9688 40.9219 40.5781 39.3125" id="BitstreamVeraSans-Roman-33"/>
      </defs>
      <g transform="translate(339.4329375 411.638125)scale(0.12 -0.12)">
       <use xlink:href="#BitstreamVeraSans-Roman-33"/>
       <use x="63.623046875" xlink:href="#BitstreamVeraSans-Roman-30"/>
      </g>
     </g>
    </g>
    <g id="xtick_5">
     <g id="line2d_11">
      <g>
       <use style="stroke:#000000;stroke-width:0.5;" x="437.166" xlink:href="#m93b0483c22" y="398.52"/>
      </g>
     </g>
     <g id="line2d_12">
      <g>
       <use style="stroke:#000000;stroke-width:0.5;" x="437.166" xlink:href="#m741efc42ff" y="44.28"/>
      </g>
     </g>
     <g id="text_5">
      <!-- 40 -->
      <defs>
       <path d="
M37.7969 64.3125
L12.8906 25.3906
L37.7969 25.3906
z

M35.2031 72.9062
L47.6094 72.9062
L47.6094 25.3906
L58.0156 25.3906
L58.0156 17.1875
L47.6094 17.1875
L47.6094 0
L37.7969 0
L37.7969 17.1875
L4.89062 17.1875
L4.89062 26.7031
z
" id="BitstreamVeraSans-Roman-34"/>
      </defs>
      <g transform="translate(430.222875 411.638125)scale(0.12 -0.12)">
       <use xlink:href="#BitstreamVeraSans-Roman-34"/>
       <use x="63.623046875" xlink:href="#BitstreamVeraSans-Roman-30"/>
      </g>
     </g>
    </g>
    <g id="xtick_6">
     <g id="line2d_13">
      <g>
       <use style="stroke:#000000;stroke-width:0.5;" x="528.12" xlink:href="#m93b0483c22" y="398.52"/>
      </g>
     </g>
     <g id="line2d_14">
      <g>
       <use style="stroke:#000000;stroke-width:0.5;" x="528.12" xlink:href="#m741efc42ff" y="44.28"/>
      </g>
     </g>
     <g id="text_6">
      <!-- 50 -->
      <defs>
       <path d="
M10.7969 72.9062
L49.5156 72.9062
L49.5156 64.5938
L19.8281 64.5938
L19.8281 46.7344
Q21.9688 47.4688 24.1094 47.8281
Q26.2656 48.1875 28.4219 48.1875
Q40.625 48.1875 47.75 41.5
Q54.8906 34.8125 54.8906 23.3906
Q54.8906 11.625 47.5625 5.09375
Q40.2344 -1.42188 26.9062 -1.42188
Q22.3125 -1.42188 17.5469 -0.640625
Q12.7969 0.140625 7.71875 1.70312
L7.71875 11.625
Q12.1094 9.23438 16.7969 8.0625
Q21.4844 6.89062 26.7031 6.89062
Q35.1562 6.89062 40.0781 11.3281
Q45.0156 15.7656 45.0156 23.3906
Q45.0156 31 40.0781 35.4375
Q35.1562 39.8906 26.7031 39.8906
Q22.75 39.8906 18.8125 39.0156
Q14.8906 38.1406 10.7969 36.2812
z
" id="BitstreamVeraSans-Roman-35"/>
      </defs>
      <g transform="translate(521.3465625 411.638125)scale(0.12 -0.12)">
       <use xlink:href="#BitstreamVeraSans-Roman-35"/>
       <use x="63.623046875" xlink:href="#BitstreamVeraSans-Roman-30"/>
      </g>
     </g>
    </g>
    <g id="text_7">
     <!-- K -->
     <defs>
      <path d="
M9.8125 72.9062
L19.6719 72.9062
L19.6719 42.0938
L52.3906 72.9062
L65.0938 72.9062
L28.9062 38.9219
L67.6719 0
L54.6875 0
L19.6719 35.1094
L19.6719 0
L9.8125 0
z
" id="BitstreamVeraSans-Roman-4b"/>
     </defs>
     <g transform="translate(297.2634375 428.251875)scale(0.12 -0.12)">
      <use xlink:href="#BitstreamVeraSans-Roman-4b"/>
     </g>
    </g>
   </g>
   <g id="matplotlib.axis_2">
    <g id="ytick_1">
     <g id="line2d_15">
      <defs>
       <path d="
M0 0
L4 0" id="m728421d6d4" style="stroke:#000000;stroke-width:0.5;"/>
      </defs>
      <g>
       <use style="stroke:#000000;stroke-width:0.5;" x="73.35" xlink:href="#m728421d6d4" y="398.52"/>
      </g>
     </g>
     <g id="line2d_16">
      <defs>
       <path d="
M0 0
L-4 0" id="mcb0005524f" style="stroke:#000000;stroke-width:0.5;"/>
      </defs>
      <g>
       <use style="stroke:#000000;stroke-width:0.5;" x="528.12" xlink:href="#mcb0005524f" y="398.52"/>
      </g>
     </g>
     <g id="text_8">
      <!-- 0.80 -->
      <defs>
       <path d="
M31.7812 34.625
Q24.75 34.625 20.7188 30.8594
Q16.7031 27.0938 16.7031 20.5156
Q16.7031 13.9219 20.7188 10.1562
Q24.75 6.39062 31.7812 6.39062
Q38.8125 6.39062 42.8594 10.1719
Q46.9219 13.9688 46.9219 20.5156
Q46.9219 27.0938 42.8906 30.8594
Q38.875 34.625 31.7812 34.625
M21.9219 38.8125
Q15.5781 40.375 12.0312 44.7188
Q8.5 49.0781 8.5 55.3281
Q8.5 64.0625 14.7188 69.1406
Q20.9531 74.2188 31.7812 74.2188
Q42.6719 74.2188 48.875 69.1406
Q55.0781 64.0625 55.0781 55.3281
Q55.0781 49.0781 51.5312 44.7188
Q48 40.375 41.7031 38.8125
Q48.8281 37.1562 52.7969 32.3125
Q56.7812 27.4844 56.7812 20.5156
Q56.7812 9.90625 50.3125 4.23438
Q43.8438 -1.42188 31.7812 -1.42188
Q19.7344 -1.42188 13.25 4.23438
Q6.78125 9.90625 6.78125 20.5156
Q6.78125 27.4844 10.7812 32.3125
Q14.7969 37.1562 21.9219 38.8125
M18.3125 54.3906
Q18.3125 48.7344 21.8438 45.5625
Q25.3906 42.3906 31.7812 42.3906
Q38.1406 42.3906 41.7188 45.5625
Q45.3125 48.7344 45.3125 54.3906
Q45.3125 60.0625 41.7188 63.2344
Q38.1406 66.4062 31.7812 66.4062
Q25.3906 66.4062 21.8438 63.2344
Q18.3125 60.0625 18.3125 54.3906" id="BitstreamVeraSans-Roman-38"/>
       <path d="
M10.6875 12.4062
L21 12.4062
L21 0
L10.6875 0
z
" id="BitstreamVeraSans-Roman-2e"/>
      </defs>
      <g transform="translate(44.219375 401.83125)scale(0.12 -0.12)">
       <use xlink:href="#BitstreamVeraSans-Roman-30"/>
       <use x="63.623046875" xlink:href="#BitstreamVeraSans-Roman-2e"/>
       <use x="95.41015625" xlink:href="#BitstreamVeraSans-Roman-38"/>
       <use x="159.033203125" xlink:href="#BitstreamVeraSans-Roman-30"/>
      </g>
     </g>
    </g>
    <g id="ytick_2">
     <g id="line2d_17">
      <g>
       <use style="stroke:#000000;stroke-width:0.5;" x="73.35" xlink:href="#m728421d6d4" y="359.16"/>
      </g>
     </g>
     <g id="line2d_18">
      <g>
       <use style="stroke:#000000;stroke-width:0.5;" x="528.12" xlink:href="#mcb0005524f" y="359.16"/>
      </g>
     </g>
     <g id="text_9">
      <!-- 0.82 -->
      <g transform="translate(44.624375 362.47125)scale(0.12 -0.12)">
       <use xlink:href="#BitstreamVeraSans-Roman-30"/>
       <use x="63.623046875" xlink:href="#BitstreamVeraSans-Roman-2e"/>
       <use x="95.41015625" xlink:href="#BitstreamVeraSans-Roman-38"/>
       <use x="159.033203125" xlink:href="#BitstreamVeraSans-Roman-32"/>
      </g>
     </g>
    </g>
    <g id="ytick_3">
     <g id="line2d_19">
      <g>
       <use style="stroke:#000000;stroke-width:0.5;" x="73.35" xlink:href="#m728421d6d4" y="319.8"/>
      </g>
     </g>
     <g id="line2d_20">
      <g>
       <use style="stroke:#000000;stroke-width:0.5;" x="528.12" xlink:href="#mcb0005524f" y="319.8"/>
      </g>
     </g>
     <g id="text_10">
      <!-- 0.84 -->
      <g transform="translate(44.095625 323.11125)scale(0.12 -0.12)">
       <use xlink:href="#BitstreamVeraSans-Roman-30"/>
       <use x="63.623046875" xlink:href="#BitstreamVeraSans-Roman-2e"/>
       <use x="95.41015625" xlink:href="#BitstreamVeraSans-Roman-38"/>
       <use x="159.033203125" xlink:href="#BitstreamVeraSans-Roman-34"/>
      </g>
     </g>
    </g>
    <g id="ytick_4">
     <g id="line2d_21">
      <g>
       <use style="stroke:#000000;stroke-width:0.5;" x="73.35" xlink:href="#m728421d6d4" y="280.44"/>
      </g>
     </g>
     <g id="line2d_22">
      <g>
       <use style="stroke:#000000;stroke-width:0.5;" x="528.12" xlink:href="#mcb0005524f" y="280.44"/>
      </g>
     </g>
     <g id="text_11">
      <!-- 0.86 -->
      <defs>
       <path d="
M33.0156 40.375
Q26.375 40.375 22.4844 35.8281
Q18.6094 31.2969 18.6094 23.3906
Q18.6094 15.5312 22.4844 10.9531
Q26.375 6.39062 33.0156 6.39062
Q39.6562 6.39062 43.5312 10.9531
Q47.4062 15.5312 47.4062 23.3906
Q47.4062 31.2969 43.5312 35.8281
Q39.6562 40.375 33.0156 40.375
M52.5938 71.2969
L52.5938 62.3125
Q48.875 64.0625 45.0938 64.9844
Q41.3125 65.9219 37.5938 65.9219
Q27.8281 65.9219 22.6719 59.3281
Q17.5312 52.7344 16.7969 39.4062
Q19.6719 43.6562 24.0156 45.9219
Q28.375 48.1875 33.5938 48.1875
Q44.5781 48.1875 50.9531 41.5156
Q57.3281 34.8594 57.3281 23.3906
Q57.3281 12.1562 50.6875 5.35938
Q44.0469 -1.42188 33.0156 -1.42188
Q20.3594 -1.42188 13.6719 8.26562
Q6.98438 17.9688 6.98438 36.375
Q6.98438 53.6562 15.1875 63.9375
Q23.3906 74.2188 37.2031 74.2188
Q40.9219 74.2188 44.7031 73.4844
Q48.4844 72.75 52.5938 71.2969" id="BitstreamVeraSans-Roman-36"/>
      </defs>
      <g transform="translate(44.178125 283.75125)scale(0.12 -0.12)">
       <use xlink:href="#BitstreamVeraSans-Roman-30"/>
       <use x="63.623046875" xlink:href="#BitstreamVeraSans-Roman-2e"/>
       <use x="95.41015625" xlink:href="#BitstreamVeraSans-Roman-38"/>
       <use x="159.033203125" xlink:href="#BitstreamVeraSans-Roman-36"/>
      </g>
     </g>
    </g>
    <g id="ytick_5">
     <g id="line2d_23">
      <g>
       <use style="stroke:#000000;stroke-width:0.5;" x="73.35" xlink:href="#m728421d6d4" y="241.08"/>
      </g>
     </g>
     <g id="line2d_24">
      <g>
       <use style="stroke:#000000;stroke-width:0.5;" x="528.12" xlink:href="#mcb0005524f" y="241.08"/>
      </g>
     </g>
     <g id="text_12">
      <!-- 0.88 -->
      <g transform="translate(44.24375 244.39125)scale(0.12 -0.12)">
       <use xlink:href="#BitstreamVeraSans-Roman-30"/>
       <use x="63.623046875" xlink:href="#BitstreamVeraSans-Roman-2e"/>
       <use x="95.41015625" xlink:href="#BitstreamVeraSans-Roman-38"/>
       <use x="159.033203125" xlink:href="#BitstreamVeraSans-Roman-38"/>
      </g>
     </g>
    </g>
    <g id="ytick_6">
     <g id="line2d_25">
      <g>
       <use style="stroke:#000000;stroke-width:0.5;" x="73.35" xlink:href="#m728421d6d4" y="201.72"/>
      </g>
     </g>
     <g id="line2d_26">
      <g>
       <use style="stroke:#000000;stroke-width:0.5;" x="528.12" xlink:href="#mcb0005524f" y="201.72"/>
      </g>
     </g>
     <g id="text_13">
      <!-- 0.90 -->
      <defs>
       <path d="
M10.9844 1.51562
L10.9844 10.5
Q14.7031 8.73438 18.5 7.8125
Q22.3125 6.89062 25.9844 6.89062
Q35.75 6.89062 40.8906 13.4531
Q46.0469 20.0156 46.7812 33.4062
Q43.9531 29.2031 39.5938 26.9531
Q35.25 24.7031 29.9844 24.7031
Q19.0469 24.7031 12.6719 31.3125
Q6.29688 37.9375 6.29688 49.4219
Q6.29688 60.6406 12.9375 67.4219
Q19.5781 74.2188 30.6094 74.2188
Q43.2656 74.2188 49.9219 64.5156
Q56.5938 54.8281 56.5938 36.375
Q56.5938 19.1406 48.4062 8.85938
Q40.2344 -1.42188 26.4219 -1.42188
Q22.7031 -1.42188 18.8906 -0.6875
Q15.0938 0.046875 10.9844 1.51562
M30.6094 32.4219
Q37.25 32.4219 41.125 36.9531
Q45.0156 41.5 45.0156 49.4219
Q45.0156 57.2812 41.125 61.8438
Q37.25 66.4062 30.6094 66.4062
Q23.9688 66.4062 20.0938 61.8438
Q16.2188 57.2812 16.2188 49.4219
Q16.2188 41.5 20.0938 36.9531
Q23.9688 32.4219 30.6094 32.4219" id="BitstreamVeraSans-Roman-39"/>
      </defs>
      <g transform="translate(44.219375 205.03125)scale(0.12 -0.12)">
       <use xlink:href="#BitstreamVeraSans-Roman-30"/>
       <use x="63.623046875" xlink:href="#BitstreamVeraSans-Roman-2e"/>
       <use x="95.41015625" xlink:href="#BitstreamVeraSans-Roman-39"/>
       <use x="159.033203125" xlink:href="#BitstreamVeraSans-Roman-30"/>
      </g>
     </g>
    </g>
    <g id="ytick_7">
     <g id="line2d_27">
      <g>
       <use style="stroke:#000000;stroke-width:0.5;" x="73.35" xlink:href="#m728421d6d4" y="162.36"/>
      </g>
     </g>
     <g id="line2d_28">
      <g>
       <use style="stroke:#000000;stroke-width:0.5;" x="528.12" xlink:href="#mcb0005524f" y="162.36"/>
      </g>
     </g>
     <g id="text_14">
      <!-- 0.92 -->
      <g transform="translate(44.624375 165.67125)scale(0.12 -0.12)">
       <use xlink:href="#BitstreamVeraSans-Roman-30"/>
       <use x="63.623046875" xlink:href="#BitstreamVeraSans-Roman-2e"/>
       <use x="95.41015625" xlink:href="#BitstreamVeraSans-Roman-39"/>
       <use x="159.033203125" xlink:href="#BitstreamVeraSans-Roman-32"/>
      </g>
     </g>
    </g>
    <g id="ytick_8">
     <g id="line2d_29">
      <g>
       <use style="stroke:#000000;stroke-width:0.5;" x="73.35" xlink:href="#m728421d6d4" y="123.0"/>
      </g>
     </g>
     <g id="line2d_30">
      <g>
       <use style="stroke:#000000;stroke-width:0.5;" x="528.12" xlink:href="#mcb0005524f" y="123.0"/>
      </g>
     </g>
     <g id="text_15">
      <!-- 0.94 -->
      <g transform="translate(44.095625 126.31125)scale(0.12 -0.12)">
       <use xlink:href="#BitstreamVeraSans-Roman-30"/>
       <use x="63.623046875" xlink:href="#BitstreamVeraSans-Roman-2e"/>
       <use x="95.41015625" xlink:href="#BitstreamVeraSans-Roman-39"/>
       <use x="159.033203125" xlink:href="#BitstreamVeraSans-Roman-34"/>
      </g>
     </g>
    </g>
    <g id="ytick_9">
     <g id="line2d_31">
      <g>
       <use style="stroke:#000000;stroke-width:0.5;" x="73.35" xlink:href="#m728421d6d4" y="83.64"/>
      </g>
     </g>
     <g id="line2d_32">
      <g>
       <use style="stroke:#000000;stroke-width:0.5;" x="528.12" xlink:href="#mcb0005524f" y="83.64"/>
      </g>
     </g>
     <g id="text_16">
      <!-- 0.96 -->
      <g transform="translate(44.178125 86.95125)scale(0.12 -0.12)">
       <use xlink:href="#BitstreamVeraSans-Roman-30"/>
       <use x="63.623046875" xlink:href="#BitstreamVeraSans-Roman-2e"/>
       <use x="95.41015625" xlink:href="#BitstreamVeraSans-Roman-39"/>
       <use x="159.033203125" xlink:href="#BitstreamVeraSans-Roman-36"/>
      </g>
     </g>
    </g>
    <g id="ytick_10">
     <g id="line2d_33">
      <g>
       <use style="stroke:#000000;stroke-width:0.5;" x="73.35" xlink:href="#m728421d6d4" y="44.28"/>
      </g>
     </g>
     <g id="line2d_34">
      <g>
       <use style="stroke:#000000;stroke-width:0.5;" x="528.12" xlink:href="#mcb0005524f" y="44.28"/>
      </g>
     </g>
     <g id="text_17">
      <!-- 0.98 -->
      <g transform="translate(44.24375 47.59125)scale(0.12 -0.12)">
       <use xlink:href="#BitstreamVeraSans-Roman-30"/>
       <use x="63.623046875" xlink:href="#BitstreamVeraSans-Roman-2e"/>
       <use x="95.41015625" xlink:href="#BitstreamVeraSans-Roman-39"/>
       <use x="159.033203125" xlink:href="#BitstreamVeraSans-Roman-38"/>
      </g>
     </g>
    </g>
    <g id="text_18">
     <!-- correct rate -->
     <defs>
      <path id="BitstreamVeraSans-Roman-20"/>
      <path d="
M34.2812 27.4844
Q23.3906 27.4844 19.1875 25
Q14.9844 22.5156 14.9844 16.5
Q14.9844 11.7188 18.1406 8.90625
Q21.2969 6.10938 26.7031 6.10938
Q34.1875 6.10938 38.7031 11.4062
Q43.2188 16.7031 43.2188 25.4844
L43.2188 27.4844
z

M52.2031 31.2031
L52.2031 0
L43.2188 0
L43.2188 8.29688
Q40.1406 3.32812 35.5469 0.953125
Q30.9531 -1.42188 24.3125 -1.42188
Q15.9219 -1.42188 10.9531 3.29688
Q6 8.01562 6 15.9219
Q6 25.1406 12.1719 29.8281
Q18.3594 34.5156 30.6094 34.5156
L43.2188 34.5156
L43.2188 35.4062
Q43.2188 41.6094 39.1406 45
Q35.0625 48.3906 27.6875 48.3906
Q23 48.3906 18.5469 47.2656
Q14.1094 46.1406 10.0156 43.8906
L10.0156 52.2031
Q14.9375 54.1094 19.5781 55.0469
Q24.2188 56 28.6094 56
Q40.4844 56 46.3438 49.8438
Q52.2031 43.7031 52.2031 31.2031" id="BitstreamVeraSans-Roman-61"/>
      <path d="
M30.6094 48.3906
Q23.3906 48.3906 19.1875 42.75
Q14.9844 37.1094 14.9844 27.2969
Q14.9844 17.4844 19.1562 11.8438
Q23.3438 6.20312 30.6094 6.20312
Q37.7969 6.20312 41.9844 11.8594
Q46.1875 17.5312 46.1875 27.2969
Q46.1875 37.0156 41.9844 42.7031
Q37.7969 48.3906 30.6094 48.3906
M30.6094 56
Q42.3281 56 49.0156 48.375
Q55.7188 40.7656 55.7188 27.2969
Q55.7188 13.875 49.0156 6.21875
Q42.3281 -1.42188 30.6094 -1.42188
Q18.8438 -1.42188 12.1719 6.21875
Q5.51562 13.875 5.51562 27.2969
Q5.51562 40.7656 12.1719 48.375
Q18.8438 56 30.6094 56" id="BitstreamVeraSans-Roman-6f"/>
      <path d="
M56.2031 29.5938
L56.2031 25.2031
L14.8906 25.2031
Q15.4844 15.9219 20.4844 11.0625
Q25.4844 6.20312 34.4219 6.20312
Q39.5938 6.20312 44.4531 7.46875
Q49.3125 8.73438 54.1094 11.2812
L54.1094 2.78125
Q49.2656 0.734375 44.1875 -0.34375
Q39.1094 -1.42188 33.8906 -1.42188
Q20.7969 -1.42188 13.1562 6.1875
Q5.51562 13.8125 5.51562 26.8125
Q5.51562 40.2344 12.7656 48.1094
Q20.0156 56 32.3281 56
Q43.3594 56 49.7812 48.8906
Q56.2031 41.7969 56.2031 29.5938
M47.2188 32.2344
Q47.125 39.5938 43.0938 43.9844
Q39.0625 48.3906 32.4219 48.3906
Q24.9062 48.3906 20.3906 44.1406
Q15.875 39.8906 15.1875 32.1719
z
" id="BitstreamVeraSans-Roman-65"/>
      <path d="
M18.3125 70.2188
L18.3125 54.6875
L36.8125 54.6875
L36.8125 47.7031
L18.3125 47.7031
L18.3125 18.0156
Q18.3125 11.3281 20.1406 9.42188
Q21.9688 7.51562 27.5938 7.51562
L36.8125 7.51562
L36.8125 0
L27.5938 0
Q17.1875 0 13.2344 3.875
Q9.28125 7.76562 9.28125 18.0156
L9.28125 47.7031
L2.6875 47.7031
L2.6875 54.6875
L9.28125 54.6875
L9.28125 70.2188
z
" id="BitstreamVeraSans-Roman-74"/>
      <path d="
M41.1094 46.2969
Q39.5938 47.1719 37.8125 47.5781
Q36.0312 48 33.8906 48
Q26.2656 48 22.1875 43.0469
Q18.1094 38.0938 18.1094 28.8125
L18.1094 0
L9.07812 0
L9.07812 54.6875
L18.1094 54.6875
L18.1094 46.1875
Q20.9531 51.1719 25.4844 53.5781
Q30.0312 56 36.5312 56
Q37.4531 56 38.5781 55.875
Q39.7031 55.7656 41.0625 55.5156
z
" id="BitstreamVeraSans-Roman-72"/>
      <path d="
M48.7812 52.5938
L48.7812 44.1875
Q44.9688 46.2969 41.1406 47.3438
Q37.3125 48.3906 33.4062 48.3906
Q24.6562 48.3906 19.8125 42.8438
Q14.9844 37.3125 14.9844 27.2969
Q14.9844 17.2812 19.8125 11.7344
Q24.6562 6.20312 33.4062 6.20312
Q37.3125 6.20312 41.1406 7.25
Q44.9688 8.29688 48.7812 10.4062
L48.7812 2.09375
Q45.0156 0.34375 40.9844 -0.53125
Q36.9688 -1.42188 32.4219 -1.42188
Q20.0625 -1.42188 12.7812 6.34375
Q5.51562 14.1094 5.51562 27.2969
Q5.51562 40.6719 12.8594 48.3281
Q20.2188 56 33.0156 56
Q37.1562 56 41.1094 55.1406
Q45.0625 54.2969 48.7812 52.5938" id="BitstreamVeraSans-Roman-63"/>
     </defs>
     <g transform="translate(36.6 256.18125)rotate(-90.0)scale(0.12 -0.12)">
      <use xlink:href="#BitstreamVeraSans-Roman-63"/>
      <use x="54.98046875" xlink:href="#BitstreamVeraSans-Roman-6f"/>
      <use x="116.162109375" xlink:href="#BitstreamVeraSans-Roman-72"/>
      <use x="155.525390625" xlink:href="#BitstreamVeraSans-Roman-72"/>
      <use x="194.388671875" xlink:href="#BitstreamVeraSans-Roman-65"/>
      <use x="255.912109375" xlink:href="#BitstreamVeraSans-Roman-63"/>
      <use x="310.892578125" xlink:href="#BitstreamVeraSans-Roman-74"/>
      <use x="350.1015625" xlink:href="#BitstreamVeraSans-Roman-20"/>
      <use x="381.888671875" xlink:href="#BitstreamVeraSans-Roman-72"/>
      <use x="423.001953125" xlink:href="#BitstreamVeraSans-Roman-61"/>
      <use x="484.28125" xlink:href="#BitstreamVeraSans-Roman-74"/>
      <use x="523.490234375" xlink:href="#BitstreamVeraSans-Roman-65"/>
     </g>
    </g>
   </g>
   <g id="patch_3">
    <path d="
M73.35 44.28
L528.12 44.28" style="fill:none;stroke:#000000;"/>
   </g>
   <g id="patch_4">
    <path d="
M528.12 398.52
L528.12 44.28" style="fill:none;stroke:#000000;"/>
   </g>
   <g id="patch_5">
    <path d="
M73.35 398.52
L528.12 398.52" style="fill:none;stroke:#000000;"/>
   </g>
   <g id="patch_6">
    <path d="
M73.35 398.52
L73.35 44.28" style="fill:none;stroke:#000000;"/>
   </g>
   <g id="text_19">
    <!-- KNN in different K value with iris data set -->
    <defs>
     <path d="
M9.8125 72.9062
L23.0938 72.9062
L55.4219 11.9219
L55.4219 72.9062
L64.9844 72.9062
L64.9844 0
L51.7031 0
L19.3906 60.9844
L19.3906 0
L9.8125 0
z
" id="BitstreamVeraSans-Roman-4e"/>
     <path d="
M8.5 21.5781
L8.5 54.6875
L17.4844 54.6875
L17.4844 21.9219
Q17.4844 14.1562 20.5 10.2656
Q23.5312 6.39062 29.5938 6.39062
Q36.8594 6.39062 41.0781 11.0312
Q45.3125 15.6719 45.3125 23.6875
L45.3125 54.6875
L54.2969 54.6875
L54.2969 0
L45.3125 0
L45.3125 8.40625
Q42.0469 3.42188 37.7188 1
Q33.4062 -1.42188 27.6875 -1.42188
Q18.2656 -1.42188 13.375 4.4375
Q8.5 10.2969 8.5 21.5781" id="BitstreamVeraSans-Roman-75"/>
     <path d="
M54.8906 33.0156
L54.8906 0
L45.9062 0
L45.9062 32.7188
Q45.9062 40.4844 42.875 44.3281
Q39.8438 48.1875 33.7969 48.1875
Q26.5156 48.1875 22.3125 43.5469
Q18.1094 38.9219 18.1094 30.9062
L18.1094 0
L9.07812 0
L9.07812 54.6875
L18.1094 54.6875
L18.1094 46.1875
Q21.3438 51.125 25.7031 53.5625
Q30.0781 56 35.7969 56
Q45.2188 56 50.0469 50.1719
Q54.8906 44.3438 54.8906 33.0156" id="BitstreamVeraSans-Roman-6e"/>
     <path d="
M9.42188 75.9844
L18.4062 75.9844
L18.4062 0
L9.42188 0
z
" id="BitstreamVeraSans-Roman-6c"/>
     <path d="
M9.42188 54.6875
L18.4062 54.6875
L18.4062 0
L9.42188 0
z

M9.42188 75.9844
L18.4062 75.9844
L18.4062 64.5938
L9.42188 64.5938
z
" id="BitstreamVeraSans-Roman-69"/>
     <path d="
M54.8906 33.0156
L54.8906 0
L45.9062 0
L45.9062 32.7188
Q45.9062 40.4844 42.875 44.3281
Q39.8438 48.1875 33.7969 48.1875
Q26.5156 48.1875 22.3125 43.5469
Q18.1094 38.9219 18.1094 30.9062
L18.1094 0
L9.07812 0
L9.07812 75.9844
L18.1094 75.9844
L18.1094 46.1875
Q21.3438 51.125 25.7031 53.5625
Q30.0781 56 35.7969 56
Q45.2188 56 50.0469 50.1719
Q54.8906 44.3438 54.8906 33.0156" id="BitstreamVeraSans-Roman-68"/>
     <path d="
M4.20312 54.6875
L13.1875 54.6875
L24.4219 12.0156
L35.5938 54.6875
L46.1875 54.6875
L57.4219 12.0156
L68.6094 54.6875
L77.5938 54.6875
L63.2812 0
L52.6875 0
L40.9219 44.8281
L29.1094 0
L18.5 0
z
" id="BitstreamVeraSans-Roman-77"/>
     <path d="
M2.98438 54.6875
L12.5 54.6875
L29.5938 8.79688
L46.6875 54.6875
L56.2031 54.6875
L35.6875 0
L23.4844 0
z
" id="BitstreamVeraSans-Roman-76"/>
     <path d="
M45.4062 46.3906
L45.4062 75.9844
L54.3906 75.9844
L54.3906 0
L45.4062 0
L45.4062 8.20312
Q42.5781 3.32812 38.25 0.953125
Q33.9375 -1.42188 27.875 -1.42188
Q17.9688 -1.42188 11.7344 6.48438
Q5.51562 14.4062 5.51562 27.2969
Q5.51562 40.1875 11.7344 48.0938
Q17.9688 56 27.875 56
Q33.9375 56 38.25 53.625
Q42.5781 51.2656 45.4062 46.3906
M14.7969 27.2969
Q14.7969 17.3906 18.875 11.75
Q22.9531 6.10938 30.0781 6.10938
Q37.2031 6.10938 41.2969 11.75
Q45.4062 17.3906 45.4062 27.2969
Q45.4062 37.2031 41.2969 42.8438
Q37.2031 48.4844 30.0781 48.4844
Q22.9531 48.4844 18.875 42.8438
Q14.7969 37.2031 14.7969 27.2969" id="BitstreamVeraSans-Roman-64"/>
     <path d="
M37.1094 75.9844
L37.1094 68.5
L28.5156 68.5
Q23.6875 68.5 21.7969 66.5469
Q19.9219 64.5938 19.9219 59.5156
L19.9219 54.6875
L34.7188 54.6875
L34.7188 47.7031
L19.9219 47.7031
L19.9219 0
L10.8906 0
L10.8906 47.7031
L2.29688 47.7031
L2.29688 54.6875
L10.8906 54.6875
L10.8906 58.5
Q10.8906 67.625 15.1406 71.7969
Q19.3906 75.9844 28.6094 75.9844
z
" id="BitstreamVeraSans-Roman-66"/>
     <path d="
M44.2812 53.0781
L44.2812 44.5781
Q40.4844 46.5312 36.375 47.5
Q32.2812 48.4844 27.875 48.4844
Q21.1875 48.4844 17.8438 46.4375
Q14.5 44.3906 14.5 40.2812
Q14.5 37.1562 16.8906 35.375
Q19.2812 33.5938 26.5156 31.9844
L29.5938 31.2969
Q39.1562 29.25 43.1875 25.5156
Q47.2188 21.7812 47.2188 15.0938
Q47.2188 7.46875 41.1875 3.01562
Q35.1562 -1.42188 24.6094 -1.42188
Q20.2188 -1.42188 15.4531 -0.5625
Q10.6875 0.296875 5.42188 2
L5.42188 11.2812
Q10.4062 8.6875 15.2344 7.39062
Q20.0625 6.10938 24.8125 6.10938
Q31.1562 6.10938 34.5625 8.28125
Q37.9844 10.4531 37.9844 14.4062
Q37.9844 18.0625 35.5156 20.0156
Q33.0625 21.9688 24.7031 23.7812
L21.5781 24.5156
Q13.2344 26.2656 9.51562 29.9062
Q5.8125 33.5469 5.8125 39.8906
Q5.8125 47.6094 11.2812 51.7969
Q16.75 56 26.8125 56
Q31.7812 56 36.1719 55.2656
Q40.5781 54.5469 44.2812 53.0781" id="BitstreamVeraSans-Roman-73"/>
    </defs>
    <g transform="translate(152.263125 39.28)scale(0.144 -0.144)">
     <use xlink:href="#BitstreamVeraSans-Roman-4b"/>
     <use x="65.576171875" xlink:href="#BitstreamVeraSans-Roman-4e"/>
     <use x="140.380859375" xlink:href="#BitstreamVeraSans-Roman-4e"/>
     <use x="215.185546875" xlink:href="#BitstreamVeraSans-Roman-20"/>
     <use x="246.97265625" xlink:href="#BitstreamVeraSans-Roman-69"/>
     <use x="274.755859375" xlink:href="#BitstreamVeraSans-Roman-6e"/>
     <use x="338.134765625" xlink:href="#BitstreamVeraSans-Roman-20"/>
     <use x="369.921875" xlink:href="#BitstreamVeraSans-Roman-64"/>
     <use x="433.3984375" xlink:href="#BitstreamVeraSans-Roman-69"/>
     <use x="461.181640625" xlink:href="#BitstreamVeraSans-Roman-66"/>
     <use x="496.38671875" xlink:href="#BitstreamVeraSans-Roman-66"/>
     <use x="531.591796875" xlink:href="#BitstreamVeraSans-Roman-65"/>
     <use x="593.115234375" xlink:href="#BitstreamVeraSans-Roman-72"/>
     <use x="631.978515625" xlink:href="#BitstreamVeraSans-Roman-65"/>
     <use x="693.501953125" xlink:href="#BitstreamVeraSans-Roman-6e"/>
     <use x="756.880859375" xlink:href="#BitstreamVeraSans-Roman-74"/>
     <use x="796.08984375" xlink:href="#BitstreamVeraSans-Roman-20"/>
     <use x="827.876953125" xlink:href="#BitstreamVeraSans-Roman-4b"/>
     <use x="893.453125" xlink:href="#BitstreamVeraSans-Roman-20"/>
     <use x="925.240234375" xlink:href="#BitstreamVeraSans-Roman-76"/>
     <use x="984.419921875" xlink:href="#BitstreamVeraSans-Roman-61"/>
     <use x="1045.69921875" xlink:href="#BitstreamVeraSans-Roman-6c"/>
     <use x="1073.48242188" xlink:href="#BitstreamVeraSans-Roman-75"/>
     <use x="1136.86132812" xlink:href="#BitstreamVeraSans-Roman-65"/>
     <use x="1198.38476562" xlink:href="#BitstreamVeraSans-Roman-20"/>
     <use x="1230.171875" xlink:href="#BitstreamVeraSans-Roman-77"/>
     <use x="1311.95898438" xlink:href="#BitstreamVeraSans-Roman-69"/>
     <use x="1339.7421875" xlink:href="#BitstreamVeraSans-Roman-74"/>
     <use x="1378.95117188" xlink:href="#BitstreamVeraSans-Roman-68"/>
     <use x="1442.33007812" xlink:href="#BitstreamVeraSans-Roman-20"/>
     <use x="1474.1171875" xlink:href="#BitstreamVeraSans-Roman-69"/>
     <use x="1501.90039062" xlink:href="#BitstreamVeraSans-Roman-72"/>
     <use x="1543.01367188" xlink:href="#BitstreamVeraSans-Roman-69"/>
     <use x="1570.796875" xlink:href="#BitstreamVeraSans-Roman-73"/>
     <use x="1622.89648438" xlink:href="#BitstreamVeraSans-Roman-20"/>
     <use x="1654.68359375" xlink:href="#BitstreamVeraSans-Roman-64"/>
     <use x="1718.16015625" xlink:href="#BitstreamVeraSans-Roman-61"/>
     <use x="1779.43945312" xlink:href="#BitstreamVeraSans-Roman-74"/>
     <use x="1818.6484375" xlink:href="#BitstreamVeraSans-Roman-61"/>
     <use x="1879.92773438" xlink:href="#BitstreamVeraSans-Roman-20"/>
     <use x="1911.71484375" xlink:href="#BitstreamVeraSans-Roman-73"/>
     <use x="1963.81445312" xlink:href="#BitstreamVeraSans-Roman-65"/>
     <use x="2025.33789062" xlink:href="#BitstreamVeraSans-Roman-74"/>
    </g>
   </g>
   <g id="legend_1">
    <g id="patch_7">
     <path d="
M362.09 98.073
L520.92 98.073
L520.92 51.48
L362.09 51.48
L362.09 98.073
z
" style="fill:#ffffff;stroke:#000000;"/>
    </g>
    <g id="line2d_35">
     <path d="
M372.17 63.1417
L392.33 63.1417" style="fill:none;stroke:#0000ff;stroke-linecap:square;"/>
    </g>
    <g id="line2d_36">
     <g>
      <use style="fill:#0000ff;stroke:#0000ff;stroke-width:0.5;" x="372.17025" xlink:href="#m76a7ce5b4a" y="63.14175"/>
      <use style="fill:#0000ff;stroke:#0000ff;stroke-width:0.5;" x="392.33025" xlink:href="#m76a7ce5b4a" y="63.14175"/>
     </g>
    </g>
    <g id="text_20">
     <!-- Direct KNN -->
     <defs>
      <path d="
M19.6719 64.7969
L19.6719 8.10938
L31.5938 8.10938
Q46.6875 8.10938 53.6875 14.9375
Q60.6875 21.7812 60.6875 36.5312
Q60.6875 51.1719 53.6875 57.9844
Q46.6875 64.7969 31.5938 64.7969
z

M9.8125 72.9062
L30.0781 72.9062
Q51.2656 72.9062 61.1719 64.0938
Q71.0938 55.2812 71.0938 36.5312
Q71.0938 17.6719 61.125 8.82812
Q51.1719 0 30.0781 0
L9.8125 0
z
" id="BitstreamVeraSans-Roman-44"/>
     </defs>
     <g transform="translate(408.17025 68.18175)scale(0.144 -0.144)">
      <use xlink:href="#BitstreamVeraSans-Roman-44"/>
      <use x="77.001953125" xlink:href="#BitstreamVeraSans-Roman-69"/>
      <use x="104.78515625" xlink:href="#BitstreamVeraSans-Roman-72"/>
      <use x="143.6484375" xlink:href="#BitstreamVeraSans-Roman-65"/>
      <use x="205.171875" xlink:href="#BitstreamVeraSans-Roman-63"/>
      <use x="260.15234375" xlink:href="#BitstreamVeraSans-Roman-74"/>
      <use x="299.361328125" xlink:href="#BitstreamVeraSans-Roman-20"/>
      <use x="331.1484375" xlink:href="#BitstreamVeraSans-Roman-4b"/>
      <use x="396.724609375" xlink:href="#BitstreamVeraSans-Roman-4e"/>
      <use x="471.529296875" xlink:href="#BitstreamVeraSans-Roman-4e"/>
     </g>
    </g>
    <g id="line2d_37">
     <path d="
M372.17 84.2782
L392.33 84.2782" style="fill:none;stroke:#ff0000;stroke-linecap:square;"/>
    </g>
    <g id="line2d_38">
     <g>
      <use style="fill:#ff0000;stroke:#ff0000;stroke-width:0.5;" x="372.17025" xlink:href="#ma07bdd5909" y="84.27825"/>
      <use style="fill:#ff0000;stroke:#ff0000;stroke-width:0.5;" x="392.33025" xlink:href="#ma07bdd5909" y="84.27825"/>
     </g>
    </g>
    <g id="text_21">
     <!-- Normlized KNN -->
     <defs>
      <path d="
M52 44.1875
Q55.375 50.25 60.0625 53.125
Q64.75 56 71.0938 56
Q79.6406 56 84.2812 50.0156
Q88.9219 44.0469 88.9219 33.0156
L88.9219 0
L79.8906 0
L79.8906 32.7188
Q79.8906 40.5781 77.0938 44.375
Q74.3125 48.1875 68.6094 48.1875
Q61.625 48.1875 57.5625 43.5469
Q53.5156 38.9219 53.5156 30.9062
L53.5156 0
L44.4844 0
L44.4844 32.7188
Q44.4844 40.625 41.7031 44.4062
Q38.9219 48.1875 33.1094 48.1875
Q26.2188 48.1875 22.1562 43.5312
Q18.1094 38.875 18.1094 30.9062
L18.1094 0
L9.07812 0
L9.07812 54.6875
L18.1094 54.6875
L18.1094 46.1875
Q21.1875 51.2188 25.4844 53.6094
Q29.7812 56 35.6875 56
Q41.6562 56 45.8281 52.9688
Q50 49.9531 52 44.1875" id="BitstreamVeraSans-Roman-6d"/>
      <path d="
M5.51562 54.6875
L48.1875 54.6875
L48.1875 46.4844
L14.4062 7.17188
L48.1875 7.17188
L48.1875 0
L4.29688 0
L4.29688 8.20312
L38.0938 47.5156
L5.51562 47.5156
z
" id="BitstreamVeraSans-Roman-7a"/>
     </defs>
     <g transform="translate(408.17025 89.31825)scale(0.144 -0.144)">
      <use xlink:href="#BitstreamVeraSans-Roman-4e"/>
      <use x="74.8046875" xlink:href="#BitstreamVeraSans-Roman-6f"/>
      <use x="135.986328125" xlink:href="#BitstreamVeraSans-Roman-72"/>
      <use x="175.349609375" xlink:href="#BitstreamVeraSans-Roman-6d"/>
      <use x="272.76171875" xlink:href="#BitstreamVeraSans-Roman-6c"/>
      <use x="300.544921875" xlink:href="#BitstreamVeraSans-Roman-69"/>
      <use x="328.328125" xlink:href="#BitstreamVeraSans-Roman-7a"/>
      <use x="380.818359375" xlink:href="#BitstreamVeraSans-Roman-65"/>
      <use x="442.341796875" xlink:href="#BitstreamVeraSans-Roman-64"/>
      <use x="505.818359375" xlink:href="#BitstreamVeraSans-Roman-20"/>
      <use x="537.60546875" xlink:href="#BitstreamVeraSans-Roman-4b"/>
      <use x="603.181640625" xlink:href="#BitstreamVeraSans-Roman-4e"/>
      <use x="677.986328125" xlink:href="#BitstreamVeraSans-Roman-4e"/>
     </g>
    </g>
   </g>
  </g>
 </g>
 <defs>
  <clipPath id="p9061672a36">
   <rect height="354.24" width="454.77" x="73.35" y="44.28"/>
  </clipPath>
 </defs>
</svg>
